<?xml version="1.0" encoding="UTF-8"?>
<svg xmlns="http://www.w3.org/2000/svg" xmlns:xlink="http://www.w3.org/1999/xlink" width="13px" height="13px" viewBox="0 0 13 13" version="1.1">
<g id="surface1">
<rect x="0" y="0" width="13" height="13" style="fill:rgb(86.666667%,91.37255%,92.941177%);fill-opacity:1;stroke:none;"/>
<path style=" stroke:none;fill-rule:nonzero;fill:rgb(13.725491%,40.784314%,53.333336%);fill-opacity:1;" d="M 3.304688 1.285156 C 8.378906 1.285156 8.378906 1.285156 9.289062 2.367188 C 9.445312 2.574219 9.558594 2.820312 9.667969 3.070312 L 9.707031 3.160156 C 9.753906 3.28125 9.78125 3.40625 9.808594 3.535156 L 9.824219 3.605469 C 9.839844 3.675781 9.851562 3.75 9.867188 3.820312 L 9.882812 3.886719 C 9.929688 4.105469 9.925781 4.324219 9.925781 4.546875 L 9.925781 4.664062 C 9.925781 5.03125 9.898438 5.386719 9.800781 5.734375 L 9.78125 5.804688 C 9.53125 6.691406 9.0625 7.253906 8.40625 7.679688 C 8.351562 7.707031 8.351562 7.707031 8.277344 7.707031 L 8.277344 7.769531 L 8.328125 7.769531 C 8.367188 7.847656 8.40625 7.925781 8.445312 8.007812 C 8.46875 8.058594 8.496094 8.109375 8.519531 8.164062 L 8.558594 8.246094 C 8.628906 8.394531 8.703125 8.539062 8.777344 8.683594 L 8.820312 8.773438 C 8.914062 8.957031 9.011719 9.144531 9.109375 9.328125 C 9.253906 9.597656 9.394531 9.871094 9.527344 10.152344 C 9.730469 10.585938 9.953125 11.003906 10.175781 11.417969 C 10.265625 11.585938 10.265625 11.585938 10.265625 11.621094 C 9.957031 11.636719 9.648438 11.644531 9.339844 11.652344 C 9.195312 11.65625 9.050781 11.660156 8.90625 11.667969 C 8.769531 11.671875 8.628906 11.675781 8.492188 11.679688 C 8.4375 11.679688 8.386719 11.679688 8.332031 11.683594 C 7.929688 11.707031 7.929688 11.707031 7.804688 11.5625 C 7.710938 11.421875 7.644531 11.265625 7.582031 11.097656 C 7.546875 11 7.503906 10.910156 7.460938 10.820312 L 7.425781 10.738281 C 7.386719 10.664062 7.351562 10.589844 7.3125 10.515625 C 7.238281 10.378906 7.175781 10.242188 7.109375 10.101562 C 6.988281 9.828125 6.855469 9.558594 6.722656 9.292969 C 6.414062 8.675781 6.414062 8.675781 6.414062 8.582031 L 6.363281 8.582031 L 6.3125 8.394531 L 6.265625 8.394531 C 6.238281 8.339844 6.214844 8.285156 6.191406 8.234375 L 6.152344 8.140625 C 6.117188 8.058594 6.089844 7.980469 6.066406 7.894531 C 6.378906 7.601562 6.699219 7.3125 7.019531 7.035156 C 7.929688 6.285156 7.929688 6.285156 8.402344 5.105469 L 8.203125 5.167969 L 8.203125 5.230469 C 8.140625 5.285156 8.078125 5.332031 8.015625 5.378906 C 7.890625 5.476562 7.769531 5.570312 7.65625 5.683594 C 7.578125 5.761719 7.496094 5.832031 7.414062 5.902344 C 7.339844 5.964844 7.265625 6.03125 7.191406 6.097656 L 7.144531 6.140625 C 7.117188 6.167969 7.085938 6.191406 7.058594 6.21875 C 6.988281 6.28125 6.917969 6.339844 6.847656 6.390625 C 6.769531 6.445312 6.699219 6.507812 6.628906 6.574219 C 6.414062 6.773438 6.191406 6.960938 5.96875 7.148438 C 5.894531 7.210938 5.820312 7.277344 5.746094 7.339844 L 5.683594 7.390625 C 5.644531 7.425781 5.601562 7.460938 5.5625 7.496094 L 5.507812 7.539062 L 5.460938 7.582031 C 5.417969 7.613281 5.417969 7.613281 5.367188 7.613281 L 5.367188 11.621094 L 3.304688 11.621094 Z M 3.304688 1.285156 "/>
<path style=" stroke:none;fill-rule:nonzero;fill:rgb(14.117648%,36.078432%,48.235294%);fill-opacity:1;" d="M 3.332031 3.226562 L 3.355469 3.226562 C 3.378906 3.476562 3.386719 3.71875 3.386719 3.96875 L 3.386719 4.074219 C 3.386719 4.253906 3.378906 4.40625 3.332031 4.574219 L 3.378906 4.605469 C 3.382812 4.648438 3.382812 4.691406 3.382812 4.734375 L 3.382812 4.808594 C 3.378906 4.898438 3.367188 4.984375 3.355469 5.074219 L 3.398438 5.070312 C 3.792969 5.046875 4.191406 5.039062 4.585938 5.042969 C 4.699219 5.042969 4.8125 5.042969 4.921875 5.046875 L 5 5.046875 C 5.117188 5.046875 5.226562 5.042969 5.34375 5.011719 L 5.367188 5.136719 C 5.570312 5.171875 5.773438 5.191406 5.972656 5.152344 C 6.132812 5.128906 6.292969 5.132812 6.453125 5.132812 C 6.488281 5.132812 6.523438 5.132812 6.558594 5.132812 C 6.632812 5.132812 6.703125 5.132812 6.777344 5.132812 C 6.871094 5.132812 6.964844 5.132812 7.058594 5.132812 C 7.128906 5.132812 7.203125 5.132812 7.277344 5.132812 C 7.308594 5.132812 7.34375 5.132812 7.378906 5.132812 C 7.425781 5.132812 7.476562 5.132812 7.523438 5.132812 L 7.605469 5.132812 C 7.679688 5.136719 7.679688 5.136719 7.75 5.15625 C 7.804688 5.175781 7.804688 5.175781 7.863281 5.140625 C 7.953125 5.09375 8.03125 5.101562 8.128906 5.105469 L 8.128906 5.230469 L 8.054688 5.230469 L 8.054688 5.292969 C 8.003906 5.339844 8.003906 5.339844 7.933594 5.386719 C 7.855469 5.445312 7.78125 5.503906 7.707031 5.574219 C 7.664062 5.605469 7.621094 5.640625 7.582031 5.667969 C 7.476562 5.753906 7.476562 5.753906 7.382812 5.859375 L 7.308594 5.859375 L 7.308594 5.921875 L 7.207031 5.953125 L 7.207031 6.015625 C 7.148438 6.070312 7.089844 6.121094 7.027344 6.171875 L 6.976562 6.214844 C 6.894531 6.285156 6.832031 6.335938 6.734375 6.359375 L 6.734375 6.421875 L 6.636719 6.453125 L 6.636719 6.515625 C 6.46875 6.640625 6.46875 6.640625 6.414062 6.640625 L 6.386719 6.734375 L 6.265625 6.765625 L 6.265625 6.828125 L 6.214844 6.851562 L 6.152344 6.886719 L 6.089844 6.917969 C 6.03125 6.949219 6.03125 6.949219 6.015625 7.046875 C 5.957031 7.078125 5.898438 7.109375 5.839844 7.140625 L 5.792969 7.234375 L 5.71875 7.265625 L 5.691406 7.332031 L 5.597656 7.371094 C 5.46875 7.429688 5.394531 7.53125 5.320312 7.675781 L 5.367188 7.675781 L 5.367188 11.621094 L 3.304688 11.621094 C 3.304688 10.480469 3.304688 9.339844 3.304688 8.199219 L 3.304688 8.128906 C 3.304688 7.742188 3.304688 7.351562 3.304688 6.964844 C 3.304688 6.566406 3.304688 6.167969 3.304688 5.769531 C 3.304688 5.523438 3.304688 5.277344 3.304688 5.03125 C 3.304688 4.84375 3.304688 4.65625 3.304688 4.464844 C 3.304688 4.390625 3.304688 4.3125 3.304688 4.234375 C 3.304688 4.128906 3.304688 4.023438 3.304688 3.917969 L 3.300781 3.828125 C 3.304688 3.625 3.3125 3.425781 3.332031 3.226562 Z M 3.332031 3.226562 "/>
<path style=" stroke:none;fill-rule:nonzero;fill:rgb(85.490197%,90.980393%,93.333334%);fill-opacity:1;" d="M 5.367188 3.414062 C 5.566406 3.410156 5.765625 3.40625 5.964844 3.40625 C 6.058594 3.402344 6.148438 3.402344 6.242188 3.398438 C 7.304688 3.375 7.304688 3.375 7.640625 3.765625 C 7.855469 4.066406 7.933594 4.339844 7.933594 4.75 L 7.933594 4.875 C 7.929688 4.980469 7.929688 4.980469 7.90625 5.105469 L 5.367188 5.105469 Z M 5.367188 3.414062 "/>
<path style=" stroke:none;fill-rule:nonzero;fill:rgb(7.450981%,15.294118%,27.843139%);fill-opacity:1;" d="M 3.332031 3.226562 L 3.355469 3.226562 C 3.378906 3.476562 3.386719 3.71875 3.386719 3.96875 L 3.386719 4.074219 C 3.386719 4.253906 3.378906 4.40625 3.332031 4.574219 L 3.378906 4.605469 C 3.382812 4.648438 3.382812 4.691406 3.382812 4.734375 L 3.382812 4.808594 C 3.378906 4.898438 3.367188 4.984375 3.355469 5.074219 L 3.398438 5.070312 C 3.792969 5.046875 4.191406 5.039062 4.585938 5.042969 C 4.699219 5.042969 4.8125 5.042969 4.921875 5.046875 L 5 5.046875 C 5.117188 5.046875 5.226562 5.042969 5.34375 5.011719 L 5.34375 5.105469 C 5.097656 5.109375 4.855469 5.113281 4.609375 5.117188 C 4.496094 5.121094 4.382812 5.121094 4.269531 5.125 C 4.15625 5.125 4.046875 5.128906 3.9375 5.128906 L 3.8125 5.132812 C 3.753906 5.132812 3.695312 5.132812 3.636719 5.132812 L 3.585938 5.136719 C 3.515625 5.136719 3.449219 5.136719 3.378906 5.136719 L 3.378906 5.199219 C 3.382812 5.46875 3.382812 5.738281 3.382812 6.007812 L 3.382812 6.074219 C 3.382812 6.621094 3.382812 7.171875 3.375 7.71875 L 3.375 7.789062 C 3.371094 8.019531 3.367188 8.246094 3.363281 8.476562 C 3.355469 8.933594 3.355469 9.394531 3.371094 9.855469 C 3.378906 10.113281 3.378906 10.367188 3.367188 10.628906 C 3.359375 10.851562 3.355469 11.054688 3.378906 11.277344 C 3.378906 11.382812 3.367188 11.484375 3.355469 11.589844 L 3.445312 11.558594 C 3.613281 11.511719 3.78125 11.519531 3.953125 11.519531 C 3.988281 11.519531 4.023438 11.519531 4.058594 11.519531 C 4.132812 11.519531 4.207031 11.519531 4.28125 11.519531 C 4.378906 11.523438 4.472656 11.523438 4.570312 11.523438 C 4.640625 11.523438 4.714844 11.523438 4.789062 11.523438 C 4.824219 11.523438 4.859375 11.523438 4.894531 11.523438 C 4.945312 11.523438 4.992188 11.523438 5.042969 11.523438 L 5.125 11.523438 C 5.195312 11.527344 5.195312 11.527344 5.269531 11.558594 L 5.269531 11.496094 L 5.320312 11.496094 L 5.320312 10.746094 L 5.34375 10.746094 L 5.34375 11.589844 C 5.234375 11.617188 5.140625 11.625 5.03125 11.625 L 4.972656 11.625 C 4.910156 11.625 4.851562 11.625 4.789062 11.625 C 4.746094 11.625 4.703125 11.625 4.660156 11.625 C 4.546875 11.625 4.4375 11.625 4.324219 11.625 C 4.210938 11.625 4.09375 11.625 3.980469 11.625 C 3.753906 11.621094 3.53125 11.621094 3.304688 11.621094 C 3.304688 10.601562 3.304688 9.582031 3.304688 8.5625 L 3.304688 8.128906 C 3.304688 7.742188 3.304688 7.351562 3.304688 6.964844 C 3.304688 6.566406 3.304688 6.167969 3.304688 5.769531 C 3.304688 5.523438 3.304688 5.277344 3.304688 5.03125 C 3.304688 4.84375 3.304688 4.65625 3.304688 4.464844 C 3.304688 4.390625 3.304688 4.3125 3.304688 4.234375 C 3.304688 4.128906 3.304688 4.023438 3.304688 3.917969 L 3.300781 3.828125 C 3.304688 3.625 3.3125 3.425781 3.332031 3.226562 Z M 3.332031 3.226562 "/>
<path style=" stroke:none;fill-rule:nonzero;fill:rgb(45.09804%,72.156864%,73.333335%);fill-opacity:1;" d="M 7.90625 4.980469 L 7.929688 5.074219 L 8.425781 5.074219 L 8.402344 5.199219 L 8.402344 5.105469 L 8.203125 5.167969 L 8.203125 5.230469 C 8.140625 5.285156 8.078125 5.332031 8.015625 5.378906 C 7.890625 5.476562 7.769531 5.570312 7.65625 5.683594 C 7.578125 5.761719 7.496094 5.832031 7.414062 5.902344 C 7.339844 5.964844 7.265625 6.03125 7.191406 6.097656 L 7.144531 6.140625 C 7.117188 6.167969 7.085938 6.191406 7.058594 6.21875 C 6.988281 6.28125 6.917969 6.339844 6.847656 6.390625 C 6.769531 6.445312 6.699219 6.507812 6.628906 6.574219 C 6.414062 6.773438 6.191406 6.960938 5.96875 7.148438 C 5.894531 7.210938 5.820312 7.277344 5.746094 7.339844 L 5.683594 7.390625 C 5.644531 7.425781 5.601562 7.460938 5.5625 7.496094 L 5.507812 7.539062 L 5.460938 7.582031 C 5.417969 7.613281 5.417969 7.613281 5.367188 7.613281 L 5.367188 7.675781 L 5.269531 7.707031 C 5.292969 7.667969 5.316406 7.632812 5.339844 7.597656 L 5.382812 7.535156 L 5.417969 7.488281 L 5.46875 7.488281 L 5.484375 7.425781 C 5.519531 7.363281 5.519531 7.363281 5.609375 7.339844 L 5.691406 7.332031 L 5.71875 7.234375 L 5.792969 7.234375 L 5.804688 7.175781 C 5.859375 7.078125 5.925781 7.074219 6.015625 7.046875 L 6.019531 6.992188 C 6.039062 6.921875 6.039062 6.921875 6.113281 6.867188 C 6.1875 6.828125 6.1875 6.828125 6.265625 6.828125 L 6.265625 6.765625 L 6.320312 6.742188 C 6.386719 6.703125 6.414062 6.671875 6.460938 6.609375 C 6.574219 6.515625 6.574219 6.515625 6.636719 6.515625 L 6.636719 6.453125 L 6.734375 6.421875 L 6.734375 6.359375 L 6.808594 6.308594 C 6.914062 6.234375 7.007812 6.148438 7.105469 6.058594 C 7.160156 6.015625 7.160156 6.015625 7.207031 6.015625 L 7.207031 5.953125 L 7.308594 5.921875 L 7.308594 5.859375 C 7.347656 5.824219 7.390625 5.792969 7.433594 5.765625 C 7.464844 5.734375 7.496094 5.703125 7.53125 5.667969 C 7.609375 5.59375 7.691406 5.539062 7.78125 5.480469 L 7.84375 5.417969 C 7.910156 5.351562 7.972656 5.324219 8.054688 5.292969 L 8.054688 5.230469 L 8.128906 5.230469 L 8.101562 5.136719 C 8.015625 5.132812 7.945312 5.128906 7.859375 5.171875 C 7.78125 5.199219 7.75 5.199219 7.671875 5.1875 C 7.511719 5.164062 7.347656 5.164062 7.183594 5.164062 L 7.085938 5.164062 C 7.015625 5.164062 6.949219 5.164062 6.878906 5.164062 C 6.792969 5.164062 6.703125 5.164062 6.617188 5.164062 C 6.53125 5.164062 6.445312 5.164062 6.363281 5.164062 L 6.269531 5.164062 C 6.117188 5.164062 5.96875 5.171875 5.816406 5.191406 C 5.75 5.203125 5.6875 5.203125 5.621094 5.203125 L 5.554688 5.203125 C 5.492188 5.199219 5.492188 5.199219 5.4375 5.183594 C 5.339844 5.160156 5.246094 5.15625 5.148438 5.152344 L 5.089844 5.148438 C 5.042969 5.144531 4.996094 5.140625 4.945312 5.136719 L 4.945312 5.105469 C 5.285156 5.074219 5.625 5.074219 5.964844 5.078125 C 6.019531 5.078125 6.078125 5.078125 6.132812 5.082031 C 6.28125 5.082031 6.425781 5.085938 6.574219 5.085938 C 6.722656 5.089844 6.875 5.089844 7.023438 5.09375 C 7.316406 5.097656 7.609375 5.101562 7.90625 5.105469 Z M 7.90625 4.980469 "/>
<path style=" stroke:none;fill-rule:nonzero;fill:rgb(9.411765%,22.352941%,34.901962%);fill-opacity:1;" d="M 3.332031 3.226562 L 3.355469 3.226562 C 3.378906 3.476562 3.386719 3.71875 3.386719 3.96875 L 3.386719 4.074219 C 3.386719 4.253906 3.378906 4.40625 3.332031 4.574219 L 3.378906 4.605469 C 3.382812 4.648438 3.382812 4.691406 3.382812 4.734375 L 3.382812 4.808594 C 3.378906 4.898438 3.367188 4.984375 3.355469 5.074219 L 3.398438 5.070312 C 3.792969 5.046875 4.191406 5.039062 4.585938 5.042969 C 4.699219 5.042969 4.8125 5.042969 4.921875 5.046875 L 5 5.046875 C 5.117188 5.046875 5.226562 5.042969 5.34375 5.011719 L 5.34375 5.105469 C 5.097656 5.109375 4.855469 5.113281 4.609375 5.117188 C 4.496094 5.121094 4.382812 5.121094 4.269531 5.125 C 4.15625 5.125 4.046875 5.128906 3.9375 5.128906 L 3.8125 5.132812 C 3.753906 5.132812 3.695312 5.132812 3.636719 5.132812 L 3.585938 5.136719 C 3.515625 5.136719 3.449219 5.136719 3.378906 5.136719 L 3.382812 5.230469 C 3.382812 5.34375 3.382812 5.460938 3.382812 5.574219 C 3.386719 5.625 3.386719 5.671875 3.386719 5.722656 C 3.386719 5.792969 3.386719 5.863281 3.386719 5.9375 L 3.390625 6.003906 C 3.390625 6.160156 3.390625 6.160156 3.34375 6.226562 L 3.304688 6.265625 C 3.304688 5.917969 3.304688 5.574219 3.304688 5.230469 C 3.304688 5.070312 3.304688 4.910156 3.304688 4.75 C 3.304688 4.59375 3.304688 4.4375 3.304688 4.28125 C 3.304688 4.222656 3.304688 4.164062 3.304688 4.105469 C 3.300781 3.515625 3.300781 3.515625 3.332031 3.226562 Z M 3.332031 3.226562 "/>
<path style=" stroke:none;fill-rule:nonzero;fill:rgb(13.333334%,26.274511%,38.431373%);fill-opacity:1;" d="M 8.203125 5.796875 C 8.226562 5.890625 8.226562 5.890625 8.199219 5.964844 C 8.148438 6.054688 8.089844 6.125 8.027344 6.203125 L 8.003906 6.265625 L 7.941406 6.308594 C 7.871094 6.351562 7.871094 6.351562 7.855469 6.453125 L 7.789062 6.492188 C 7.710938 6.542969 7.675781 6.582031 7.617188 6.660156 C 7.550781 6.746094 7.5 6.796875 7.40625 6.828125 L 7.359375 6.828125 C 7.320312 6.863281 7.320312 6.863281 7.28125 6.910156 C 7.265625 6.925781 7.25 6.941406 7.234375 6.960938 C 7.199219 7 7.167969 7.035156 7.132812 7.074219 C 7.039062 7.183594 6.953125 7.261719 6.835938 7.332031 C 6.753906 7.394531 6.679688 7.464844 6.613281 7.550781 C 6.5625 7.570312 6.511719 7.59375 6.460938 7.613281 L 6.460938 7.675781 C 6.421875 7.707031 6.378906 7.738281 6.339844 7.769531 C 6.277344 7.816406 6.214844 7.863281 6.164062 7.925781 C 6.148438 8.011719 6.148438 8.011719 6.164062 8.082031 L 6.066406 7.957031 C 6.101562 7.851562 6.136719 7.804688 6.210938 7.742188 L 6.269531 7.691406 L 6.332031 7.640625 C 6.375 7.601562 6.417969 7.566406 6.460938 7.53125 L 6.527344 7.476562 C 6.605469 7.40625 6.6875 7.335938 6.765625 7.265625 C 6.875 7.167969 6.984375 7.066406 7.09375 6.96875 C 7.691406 6.441406 7.691406 6.441406 8.203125 5.796875 Z M 8.203125 5.796875 "/>
<path style=" stroke:none;fill-rule:nonzero;fill:rgb(13.725491%,27.450982%,38.82353%);fill-opacity:1;" d="M 7.382812 10.589844 C 7.472656 10.625 7.476562 10.648438 7.519531 10.75 L 7.550781 10.828125 C 7.625 11.007812 7.625 11.007812 7.65625 11.089844 L 7.707031 11.058594 L 7.753906 11.339844 L 7.804688 11.339844 C 7.84375 11.417969 7.84375 11.417969 7.878906 11.496094 L 7.929688 11.464844 L 7.929688 11.558594 L 7.976562 11.558594 C 8.148438 11.554688 8.320312 11.550781 8.492188 11.546875 C 8.558594 11.542969 8.625 11.542969 8.6875 11.542969 C 9.332031 11.527344 9.332031 11.527344 9.601562 11.527344 L 9.65625 11.527344 C 9.734375 11.527344 9.8125 11.53125 9.890625 11.53125 L 9.96875 11.53125 L 10.035156 11.535156 C 10.097656 11.527344 10.136719 11.503906 10.191406 11.464844 L 10.265625 11.621094 C 9.957031 11.636719 9.648438 11.644531 9.339844 11.652344 C 9.195312 11.65625 9.050781 11.660156 8.90625 11.667969 C 8.769531 11.671875 8.628906 11.675781 8.492188 11.679688 C 8.4375 11.679688 8.386719 11.679688 8.332031 11.683594 C 7.929688 11.707031 7.929688 11.707031 7.804688 11.5625 C 7.710938 11.421875 7.644531 11.265625 7.582031 11.097656 C 7.546875 10.996094 7.5 10.902344 7.449219 10.804688 C 7.382812 10.660156 7.382812 10.660156 7.382812 10.589844 Z M 7.382812 10.589844 "/>
<path style=" stroke:none;fill-rule:nonzero;fill:rgb(30.980393%,56.470591%,62.7451%);fill-opacity:1;" d="M 7.207031 5.953125 L 7.257812 5.953125 C 7.1875 6.175781 6.96875 6.308594 6.808594 6.417969 C 6.71875 6.484375 6.640625 6.5625 6.558594 6.640625 C 6.367188 6.816406 6.167969 6.984375 5.96875 7.148438 C 5.894531 7.210938 5.820312 7.277344 5.746094 7.339844 L 5.683594 7.390625 C 5.644531 7.425781 5.601562 7.460938 5.5625 7.496094 L 5.507812 7.539062 L 5.460938 7.582031 C 5.417969 7.613281 5.417969 7.613281 5.367188 7.613281 L 5.367188 7.675781 L 5.269531 7.707031 C 5.292969 7.667969 5.316406 7.632812 5.339844 7.597656 L 5.382812 7.535156 L 5.417969 7.488281 L 5.46875 7.488281 L 5.484375 7.425781 C 5.519531 7.363281 5.519531 7.363281 5.609375 7.339844 L 5.691406 7.332031 L 5.71875 7.234375 L 5.792969 7.234375 L 5.804688 7.175781 C 5.859375 7.078125 5.925781 7.074219 6.015625 7.046875 L 6.019531 6.992188 C 6.039062 6.921875 6.039062 6.921875 6.113281 6.867188 C 6.1875 6.828125 6.1875 6.828125 6.265625 6.828125 L 6.265625 6.765625 L 6.320312 6.742188 C 6.386719 6.703125 6.414062 6.671875 6.460938 6.609375 C 6.574219 6.515625 6.574219 6.515625 6.636719 6.515625 L 6.636719 6.453125 L 6.734375 6.421875 L 6.734375 6.359375 L 6.808594 6.308594 C 6.914062 6.234375 7.007812 6.148438 7.105469 6.058594 C 7.160156 6.015625 7.160156 6.015625 7.207031 6.015625 Z M 7.207031 5.953125 "/>
<path style=" stroke:none;fill-rule:nonzero;fill:rgb(11.764706%,20.392157%,31.764707%);fill-opacity:1;" d="M 5.320312 10.746094 L 5.34375 10.746094 L 5.34375 11.589844 C 5.234375 11.617188 5.140625 11.625 5.03125 11.625 L 4.972656 11.625 C 4.910156 11.625 4.851562 11.625 4.789062 11.625 C 4.746094 11.625 4.703125 11.625 4.660156 11.625 C 4.546875 11.625 4.4375 11.625 4.324219 11.625 C 4.210938 11.625 4.09375 11.625 3.980469 11.625 C 3.753906 11.621094 3.53125 11.621094 3.304688 11.621094 C 3.441406 11.519531 3.59375 11.523438 3.746094 11.523438 L 3.84375 11.523438 C 3.878906 11.523438 3.914062 11.523438 3.945312 11.523438 C 3.984375 11.523438 4.019531 11.523438 4.054688 11.523438 C 4.128906 11.523438 4.203125 11.523438 4.277344 11.523438 C 4.375 11.523438 4.46875 11.523438 4.566406 11.523438 C 4.640625 11.523438 4.714844 11.523438 4.789062 11.523438 C 4.824219 11.523438 4.859375 11.523438 4.894531 11.523438 C 4.941406 11.523438 4.992188 11.523438 5.039062 11.523438 L 5.125 11.523438 C 5.195312 11.527344 5.195312 11.527344 5.269531 11.558594 L 5.269531 11.496094 L 5.320312 11.496094 Z M 5.320312 10.746094 "/>
<path style=" stroke:none;fill-rule:nonzero;fill:rgb(30.19608%,57.647061%,63.529414%);fill-opacity:1;" d="M 7.207031 1.316406 C 7.863281 1.277344 8.511719 1.554688 9.023438 2.066406 L 8.949219 2.097656 C 8.90625 2.066406 8.90625 2.066406 8.859375 2.023438 C 8.800781 1.957031 8.800781 1.957031 8.726562 1.941406 L 8.699219 1.878906 L 8.625 1.847656 L 8.625 1.785156 L 8.476562 1.785156 L 8.453125 1.722656 C 8.402344 1.699219 8.351562 1.679688 8.300781 1.660156 L 8.300781 1.597656 L 8.25 1.601562 C 8.167969 1.597656 8.105469 1.566406 8.027344 1.535156 C 7.980469 1.527344 7.929688 1.519531 7.878906 1.511719 C 7.804688 1.5 7.730469 1.46875 7.65625 1.441406 C 7.597656 1.429688 7.539062 1.417969 7.480469 1.410156 L 7.382812 1.378906 C 7.324219 1.367188 7.265625 1.355469 7.207031 1.347656 Z M 7.207031 1.316406 "/>
<path style=" stroke:none;fill-rule:nonzero;fill:rgb(13.333334%,27.058825%,38.431373%);fill-opacity:1;" d="M 6.339844 8.425781 L 6.414062 8.488281 L 6.414062 8.550781 L 6.460938 8.582031 C 6.550781 8.664062 6.5625 8.769531 6.585938 8.894531 L 6.636719 8.894531 L 6.675781 9 C 6.695312 9.046875 6.714844 9.09375 6.730469 9.140625 C 6.742188 9.160156 6.75 9.183594 6.757812 9.207031 C 6.804688 9.320312 6.847656 9.421875 6.910156 9.523438 L 6.910156 9.585938 L 6.984375 9.617188 C 7.027344 9.710938 7.027344 9.710938 7.058594 9.804688 L 7.109375 9.804688 C 7.160156 9.898438 7.160156 9.898438 7.15625 9.976562 C 7.152344 10.0625 7.152344 10.0625 7.207031 10.113281 L 7.257812 10.148438 L 7.234375 10.210938 L 7.160156 10.210938 L 7.128906 10.140625 C 7 9.855469 6.863281 9.578125 6.726562 9.300781 C 6.414062 8.675781 6.414062 8.675781 6.414062 8.582031 L 6.363281 8.582031 Z M 6.339844 8.425781 "/>
<path style=" stroke:none;fill-rule:nonzero;fill:rgb(7.843138%,26.666668%,40.784314%);fill-opacity:1;" d="M 5.34375 5.011719 L 5.34375 5.105469 C 5.097656 5.109375 4.855469 5.113281 4.609375 5.117188 C 4.496094 5.121094 4.382812 5.121094 4.269531 5.125 C 4.15625 5.125 4.046875 5.128906 3.9375 5.128906 L 3.8125 5.132812 C 3.753906 5.132812 3.695312 5.132812 3.636719 5.132812 L 3.585938 5.136719 C 3.515625 5.136719 3.449219 5.136719 3.378906 5.136719 L 3.355469 5.074219 C 3.769531 5.046875 4.179688 5.039062 4.59375 5.042969 C 4.707031 5.042969 4.820312 5.042969 4.933594 5.046875 L 5.011719 5.046875 C 5.035156 5.046875 5.058594 5.046875 5.082031 5.046875 L 5.144531 5.046875 C 5.222656 5.042969 5.261719 5.011719 5.34375 5.011719 Z M 5.34375 5.011719 "/>
<path style=" stroke:none;fill-rule:nonzero;fill:rgb(21.960784%,49.019608%,55.686277%);fill-opacity:1;" d="M 5.070312 1.316406 C 5.347656 1.3125 5.625 1.3125 5.90625 1.3125 C 6.035156 1.3125 6.164062 1.3125 6.292969 1.3125 C 6.414062 1.308594 6.539062 1.308594 6.664062 1.308594 C 6.710938 1.308594 6.757812 1.308594 6.808594 1.308594 C 6.875 1.308594 6.941406 1.308594 7.007812 1.308594 L 7.066406 1.308594 C 7.203125 1.308594 7.203125 1.308594 7.257812 1.378906 C 7.234375 1.410156 7.234375 1.410156 7.144531 1.410156 L 7.058594 1.410156 L 7.058594 1.347656 L 7.007812 1.363281 C 6.929688 1.378906 6.863281 1.378906 6.785156 1.378906 L 6.734375 1.410156 L 6.734375 1.347656 L 6.695312 1.363281 C 6.625 1.382812 6.5625 1.382812 6.488281 1.382812 L 6.203125 1.382812 C 6.132812 1.382812 6.066406 1.382812 5.996094 1.382812 C 5.90625 1.382812 5.820312 1.382812 5.730469 1.386719 C 5.644531 1.386719 5.558594 1.386719 5.476562 1.386719 L 5.210938 1.386719 C 5.144531 1.378906 5.144531 1.378906 5.070312 1.316406 Z M 5.070312 1.316406 "/>
<path style=" stroke:none;fill-rule:nonzero;fill:rgb(75.686276%,90.980393%,94.509804%);fill-opacity:1;" d="M 9.894531 3.882812 L 9.917969 3.882812 C 9.980469 4.410156 10.089844 5.359375 9.832031 5.832031 L 9.792969 5.890625 C 9.777344 5.953125 9.757812 6.015625 9.742188 6.078125 L 9.695312 6.078125 L 9.707031 6.023438 C 9.71875 5.96875 9.734375 5.914062 9.746094 5.863281 C 9.761719 5.792969 9.777344 5.726562 9.792969 5.65625 L 9.820312 5.542969 L 9.847656 5.441406 C 9.910156 5.109375 9.894531 4.769531 9.894531 4.429688 C 9.894531 4.375 9.894531 4.324219 9.894531 4.269531 C 9.894531 4.140625 9.894531 4.011719 9.894531 3.882812 Z M 9.894531 3.882812 "/>
<path style=" stroke:none;fill-rule:nonzero;fill:rgb(27.058825%,57.647061%,63.529414%);fill-opacity:1;" d="M 9.742188 3.414062 C 9.792969 3.445312 9.792969 3.445312 9.820312 3.535156 L 9.84375 3.652344 L 9.871094 3.769531 C 9.90625 3.949219 9.921875 4.125 9.921875 4.3125 L 9.921875 4.429688 C 9.921875 4.46875 9.921875 4.511719 9.921875 4.550781 L 9.921875 4.671875 C 9.921875 4.890625 9.914062 5.105469 9.894531 5.324219 L 9.867188 5.324219 L 9.867188 5.214844 C 9.863281 5.074219 9.863281 4.9375 9.859375 4.800781 C 9.859375 4.742188 9.859375 4.679688 9.859375 4.621094 C 9.855469 4.535156 9.855469 4.449219 9.851562 4.363281 L 9.851562 4.285156 C 9.851562 4.140625 9.835938 4.023438 9.792969 3.882812 C 9.789062 3.835938 9.78125 3.785156 9.78125 3.734375 C 9.777344 3.644531 9.777344 3.644531 9.742188 3.570312 C 9.742188 3.519531 9.742188 3.464844 9.742188 3.414062 Z M 9.742188 3.414062 "/>
<path style=" stroke:none;fill-rule:nonzero;fill:rgb(14.509805%,25.490198%,36.862746%);fill-opacity:1;" d="M 6.960938 7.171875 L 7.007812 7.203125 L 6.910156 7.265625 Z M 6.859375 7.238281 L 6.910156 7.265625 L 6.871094 7.289062 C 6.773438 7.355469 6.691406 7.449219 6.613281 7.550781 C 6.5625 7.570312 6.511719 7.59375 6.460938 7.613281 L 6.460938 7.675781 C 6.421875 7.707031 6.378906 7.738281 6.339844 7.769531 C 6.277344 7.816406 6.214844 7.863281 6.164062 7.925781 C 6.148438 8.011719 6.148438 8.011719 6.164062 8.082031 L 6.066406 7.957031 C 6.101562 7.847656 6.140625 7.800781 6.214844 7.738281 L 6.277344 7.683594 L 6.339844 7.632812 C 6.382812 7.597656 6.425781 7.5625 6.464844 7.527344 L 6.527344 7.476562 C 6.601562 7.410156 6.671875 7.339844 6.742188 7.269531 C 6.785156 7.234375 6.785156 7.234375 6.859375 7.238281 Z M 6.859375 7.238281 "/>
<path style=" stroke:none;fill-rule:nonzero;fill:rgb(33.725491%,60.784316%,65.490198%);fill-opacity:1;" d="M 5.753906 5.085938 C 5.8125 5.085938 5.871094 5.089844 5.933594 5.089844 C 6.132812 5.097656 6.335938 5.109375 6.539062 5.136719 L 6.539062 5.167969 L 6.492188 5.167969 C 6.425781 5.167969 6.359375 5.167969 6.292969 5.167969 L 6.222656 5.164062 C 6.085938 5.164062 5.957031 5.175781 5.820312 5.191406 C 5.753906 5.203125 5.6875 5.203125 5.621094 5.203125 L 5.554688 5.203125 C 5.492188 5.199219 5.492188 5.199219 5.4375 5.183594 C 5.339844 5.160156 5.246094 5.15625 5.148438 5.152344 L 5.089844 5.148438 C 5.042969 5.144531 4.996094 5.140625 4.945312 5.136719 L 4.945312 5.105469 C 5.214844 5.078125 5.480469 5.074219 5.753906 5.085938 Z M 5.753906 5.085938 "/>
<path style=" stroke:none;fill-rule:nonzero;fill:rgb(45.09804%,74.901962%,75.686276%);fill-opacity:1;" d="M 8.128906 5.105469 L 8.277344 5.105469 L 8.253906 5.167969 L 8.203125 5.167969 L 8.203125 5.230469 C 8.140625 5.285156 8.078125 5.332031 8.015625 5.378906 C 7.890625 5.476562 7.773438 5.570312 7.65625 5.683594 C 7.585938 5.753906 7.507812 5.820312 7.433594 5.886719 L 7.386719 5.921875 C 7.351562 5.953125 7.316406 5.984375 7.28125 6.015625 L 7.257812 5.921875 L 7.308594 5.921875 L 7.308594 5.859375 C 7.347656 5.824219 7.390625 5.792969 7.433594 5.765625 C 7.464844 5.734375 7.496094 5.703125 7.53125 5.667969 C 7.609375 5.59375 7.691406 5.539062 7.78125 5.480469 L 7.84375 5.417969 C 7.910156 5.351562 7.972656 5.324219 8.054688 5.292969 L 8.054688 5.230469 L 8.128906 5.230469 Z M 8.128906 5.105469 "/>
<path style=" stroke:none;fill-rule:nonzero;fill:rgb(15.686275%,32.941177%,44.313726%);fill-opacity:1;" d="M 8.203125 5.796875 C 8.226562 5.890625 8.226562 5.890625 8.199219 5.964844 C 8.148438 6.054688 8.089844 6.125 8.027344 6.203125 L 8.003906 6.265625 L 7.941406 6.308594 C 7.871094 6.351562 7.871094 6.351562 7.855469 6.453125 C 7.765625 6.507812 7.765625 6.507812 7.679688 6.546875 L 7.632812 6.484375 L 7.699219 6.414062 C 7.882812 6.21875 8.050781 6.027344 8.203125 5.796875 Z M 8.203125 5.796875 "/>
<path style=" stroke:none;fill-rule:nonzero;fill:rgb(35.686275%,63.137257%,66.666669%);fill-opacity:1;" d="M 7.207031 5.953125 L 7.257812 5.953125 C 7.1875 6.175781 6.96875 6.308594 6.808594 6.417969 C 6.671875 6.519531 6.542969 6.644531 6.421875 6.773438 C 6.363281 6.828125 6.363281 6.828125 6.3125 6.828125 L 6.3125 6.734375 L 6.386719 6.703125 L 6.421875 6.660156 C 6.484375 6.585938 6.550781 6.515625 6.636719 6.515625 L 6.636719 6.453125 L 6.734375 6.421875 L 6.734375 6.359375 L 6.808594 6.308594 C 6.914062 6.234375 7.007812 6.148438 7.105469 6.058594 C 7.160156 6.015625 7.160156 6.015625 7.207031 6.015625 Z M 7.207031 5.953125 "/>
<path style=" stroke:none;fill-rule:nonzero;fill:rgb(21.568628%,32.941177%,42.352942%);fill-opacity:1;" d="M 10.140625 11.464844 C 10.214844 11.496094 10.214844 11.496094 10.265625 11.621094 L 8.726562 11.621094 L 8.726562 11.589844 L 10.140625 11.589844 Z M 10.140625 11.464844 "/>
<path style=" stroke:none;fill-rule:nonzero;fill:rgb(10.980392%,26.666668%,39.215687%);fill-opacity:1;" d="M 3.332031 3.226562 L 3.355469 3.226562 C 3.378906 3.476562 3.386719 3.71875 3.386719 3.96875 L 3.386719 4.074219 C 3.386719 4.253906 3.378906 4.40625 3.332031 4.574219 L 3.304688 4.574219 C 3.304688 4.4375 3.304688 4.300781 3.304688 4.164062 C 3.304688 4.117188 3.304688 4.070312 3.304688 4.023438 C 3.304688 3.757812 3.304688 3.492188 3.332031 3.226562 Z M 3.332031 3.226562 "/>
<path style=" stroke:none;fill-rule:nonzero;fill:rgb(30.19608%,58.039218%,63.921571%);fill-opacity:1;" d="M 9.023438 2.097656 C 9.222656 2.269531 9.40625 2.484375 9.519531 2.757812 L 9.519531 2.820312 L 9.46875 2.820312 L 9.46875 2.726562 L 9.394531 2.726562 L 9.351562 2.621094 C 9.3125 2.539062 9.277344 2.476562 9.222656 2.410156 L 9.222656 2.347656 L 9.148438 2.328125 C 9.074219 2.285156 9.074219 2.285156 9.039062 2.1875 Z M 9.023438 2.097656 "/>
<path style=" stroke:none;fill-rule:nonzero;fill:rgb(12.156863%,24.313726%,35.686275%);fill-opacity:1;" d="M 6.339844 8.425781 L 6.414062 8.488281 L 6.414062 8.550781 L 6.460938 8.582031 C 6.550781 8.664062 6.5625 8.769531 6.585938 8.894531 L 6.636719 8.894531 C 6.652344 8.941406 6.671875 8.988281 6.6875 9.035156 L 6.71875 9.109375 L 6.734375 9.179688 L 6.710938 9.242188 C 6.414062 8.722656 6.414062 8.722656 6.414062 8.582031 L 6.363281 8.582031 Z M 6.339844 8.425781 "/>
<path style=" stroke:none;fill-rule:nonzero;fill:rgb(7.450981%,18.431373%,32.156864%);fill-opacity:1;" d="M 3.332031 6.203125 L 3.355469 6.203125 C 3.378906 6.417969 3.382812 6.636719 3.382812 6.855469 L 3.382812 6.929688 C 3.382812 7.066406 3.378906 7.195312 3.355469 7.332031 L 3.332031 7.332031 C 3.328125 7.179688 3.324219 7.027344 3.320312 6.878906 C 3.316406 6.828125 3.316406 6.777344 3.316406 6.726562 C 3.3125 6.652344 3.3125 6.578125 3.308594 6.503906 C 3.308594 6.480469 3.308594 6.457031 3.308594 6.433594 C 3.304688 6.273438 3.304688 6.273438 3.332031 6.203125 Z M 3.332031 6.203125 "/>
<path style=" stroke:none;fill-rule:nonzero;fill:rgb(78.431374%,91.764706%,95.686275%);fill-opacity:1;" d="M 9.496094 6.484375 L 9.546875 6.578125 C 9.460938 6.726562 9.375 6.859375 9.273438 6.984375 C 9.234375 7.03125 9.199219 7.074219 9.164062 7.121094 L 9.074219 7.234375 L 9 7.203125 L 9.050781 7.148438 C 9.226562 6.957031 9.390625 6.75 9.496094 6.484375 Z M 9.496094 6.484375 "/>
<path style=" stroke:none;fill-rule:nonzero;fill:rgb(47.450981%,77.254903%,76.862746%);fill-opacity:1;" d="M 8.128906 5.105469 L 8.277344 5.105469 L 8.253906 5.167969 L 8.203125 5.167969 L 8.203125 5.230469 C 8.167969 5.265625 8.167969 5.265625 8.121094 5.304688 L 8.066406 5.34375 L 7.957031 5.429688 C 7.875 5.492188 7.792969 5.554688 7.707031 5.605469 L 7.707031 5.542969 C 7.808594 5.421875 7.917969 5.335938 8.054688 5.292969 L 8.054688 5.230469 L 8.128906 5.230469 Z M 8.128906 5.105469 "/>
<path style=" stroke:none;fill-rule:nonzero;fill:rgb(32.549021%,60.000002%,66.666669%);fill-opacity:1;" d="M 9.742188 3.414062 C 9.792969 3.445312 9.792969 3.445312 9.820312 3.53125 C 9.875 3.777344 9.910156 4.007812 9.917969 4.261719 L 9.894531 4.203125 C 9.867188 4.132812 9.867188 4.132812 9.828125 4.054688 C 9.785156 3.925781 9.78125 3.8125 9.773438 3.675781 C 9.773438 3.605469 9.773438 3.605469 9.742188 3.570312 C 9.742188 3.519531 9.742188 3.464844 9.742188 3.414062 Z M 9.742188 3.414062 "/>
<path style=" stroke:none;fill-rule:nonzero;fill:rgb(24.313726%,50.588238%,58.039218%);fill-opacity:1;" d="M 7.53125 3.570312 C 7.582031 3.570312 7.582031 3.570312 7.625 3.625 L 7.671875 3.691406 L 7.71875 3.761719 C 7.753906 3.820312 7.753906 3.820312 7.753906 3.882812 L 7.828125 3.882812 L 7.828125 4.074219 C 7.773438 4.003906 7.71875 3.929688 7.667969 3.851562 C 7.613281 3.765625 7.554688 3.699219 7.480469 3.632812 L 7.53125 3.632812 Z M 7.53125 3.570312 "/>
<path style=" stroke:none;fill-rule:nonzero;fill:rgb(11.764706%,21.568628%,31.764707%);fill-opacity:1;" d="M 6.386719 7.707031 L 6.316406 7.777344 C 6.195312 7.902344 6.195312 7.902344 6.140625 8.082031 L 6.066406 7.957031 C 6.101562 7.851562 6.136719 7.804688 6.210938 7.742188 L 6.265625 7.703125 C 6.3125 7.675781 6.3125 7.675781 6.386719 7.707031 Z M 6.386719 7.707031 "/>
<path style=" stroke:none;fill-rule:nonzero;fill:rgb(39.607844%,68.235296%,72.549021%);fill-opacity:1;" d="M 7.90625 4.980469 L 7.929688 5.074219 L 8.425781 5.074219 L 8.402344 5.199219 L 8.402344 5.105469 C 8.324219 5.109375 8.25 5.113281 8.175781 5.117188 L 8.109375 5.121094 C 8.015625 5.125 7.9375 5.132812 7.84375 5.171875 C 7.78125 5.199219 7.78125 5.199219 7.679688 5.136719 L 7.90625 5.105469 Z M 7.90625 4.980469 "/>
<path style=" stroke:none;fill-rule:nonzero;fill:rgb(32.156864%,59.215689%,63.921571%);fill-opacity:1;" d="M 6.265625 6.765625 L 6.3125 6.765625 L 6.3125 6.859375 C 6.25 6.925781 6.25 6.925781 6.164062 6.992188 L 6.121094 7.027344 C 6.085938 7.054688 6.050781 7.082031 6.015625 7.109375 L 5.964844 7.046875 L 6.015625 7.046875 L 6.019531 6.992188 C 6.039062 6.921875 6.039062 6.921875 6.113281 6.867188 C 6.1875 6.828125 6.1875 6.828125 6.265625 6.828125 Z M 6.265625 6.765625 "/>
<path style=" stroke:none;fill-rule:nonzero;fill:rgb(24.313726%,50.196081%,57.254905%);fill-opacity:1;" d="M 7.929688 4.324219 C 7.980469 4.421875 7.984375 4.449219 7.988281 4.5625 L 7.996094 4.734375 L 7.996094 4.824219 C 8 4.898438 8 4.96875 8.003906 5.042969 L 7.953125 5.042969 C 7.945312 4.957031 7.9375 4.871094 7.929688 4.785156 L 7.921875 4.714844 C 7.898438 4.46875 7.898438 4.46875 7.90625 4.355469 Z M 7.929688 4.324219 "/>
<path style=" stroke:none;fill-rule:nonzero;fill:rgb(25.490198%,52.941179%,59.215689%);fill-opacity:1;" d="M 9.570312 6.265625 L 9.621094 6.296875 C 9.585938 6.371094 9.546875 6.441406 9.511719 6.515625 L 9.480469 6.578125 C 9.457031 6.632812 9.425781 6.683594 9.394531 6.734375 L 9.320312 6.734375 C 9.335938 6.628906 9.359375 6.589844 9.421875 6.515625 C 9.449219 6.449219 9.449219 6.449219 9.46875 6.390625 L 9.519531 6.390625 Z M 9.570312 6.265625 "/>
<path style=" stroke:none;fill-rule:nonzero;fill:rgb(72.156864%,87.843138%,91.764706%);fill-opacity:1;" d="M 9.84375 5.449219 C 9.894531 5.542969 9.894531 5.542969 9.886719 5.652344 C 9.867188 5.761719 9.847656 5.804688 9.792969 5.890625 C 9.777344 5.953125 9.757812 6.015625 9.742188 6.078125 L 9.695312 6.078125 Z M 9.84375 5.449219 "/>
<path style=" stroke:none;fill-rule:nonzero;fill:rgb(76.47059%,91.37255%,92.54902%);fill-opacity:1;" d="M 7.953125 5.386719 L 8.003906 5.417969 C 7.949219 5.527344 7.894531 5.578125 7.804688 5.636719 C 7.753906 5.679688 7.707031 5.722656 7.65625 5.765625 L 7.605469 5.703125 Z M 7.953125 5.386719 "/>
<path style=" stroke:none;fill-rule:nonzero;fill:rgb(26.274511%,52.549022%,60.000002%);fill-opacity:1;" d="M 6.960938 3.351562 C 7.011719 3.367188 7.066406 3.382812 7.117188 3.398438 L 7.203125 3.421875 C 7.28125 3.445312 7.28125 3.445312 7.359375 3.476562 L 7.359375 3.570312 L 6.960938 3.445312 Z M 6.960938 3.351562 "/>
<path style=" stroke:none;fill-rule:nonzero;fill:rgb(23.529412%,48.235294%,58.039218%);fill-opacity:1;" d="M 8.402344 5.199219 L 8.453125 5.199219 L 8.433594 5.382812 C 8.425781 5.460938 8.425781 5.460938 8.425781 5.574219 L 8.351562 5.636719 C 8.304688 5.476562 8.355469 5.351562 8.402344 5.199219 Z M 8.402344 5.199219 "/>
<path style=" stroke:none;fill-rule:nonzero;fill:rgb(30.980393%,58.823532%,64.313728%);fill-opacity:1;" d="M 9.519531 2.820312 C 9.628906 2.933594 9.695312 3.089844 9.742188 3.257812 C 9.746094 3.347656 9.746094 3.347656 9.742188 3.414062 C 9.671875 3.308594 9.636719 3.195312 9.59375 3.070312 L 9.546875 2.976562 C 9.535156 2.925781 9.527344 2.871094 9.519531 2.820312 Z M 9.519531 2.820312 "/>
<path style=" stroke:none;fill-rule:nonzero;fill:rgb(78.039217%,89.803922%,94.117647%);fill-opacity:1;" d="M 5.867188 7.203125 L 5.941406 7.265625 L 5.863281 7.324219 C 5.800781 7.367188 5.753906 7.40625 5.699219 7.464844 L 5.640625 7.519531 C 5.589844 7.503906 5.589844 7.503906 5.542969 7.488281 C 5.582031 7.453125 5.621094 7.417969 5.664062 7.382812 L 5.730469 7.320312 C 5.773438 7.28125 5.820312 7.242188 5.867188 7.203125 Z M 5.867188 7.203125 "/>
<path style=" stroke:none;fill-rule:nonzero;fill:rgb(39.607844%,67.450982%,70.19608%);fill-opacity:1;" d="M 7.207031 5.953125 L 7.257812 5.953125 C 7.21875 6.078125 7.160156 6.132812 7.074219 6.210938 L 7 6.28125 L 6.933594 6.328125 L 6.859375 6.296875 C 6.929688 6.222656 7.003906 6.152344 7.078125 6.085938 L 7.121094 6.042969 C 7.160156 6.015625 7.160156 6.015625 7.207031 6.015625 Z M 7.207031 5.953125 "/>
<path style=" stroke:none;fill-rule:nonzero;fill:rgb(9.019608%,20%,33.333334%);fill-opacity:1;" d="M 3.304688 4.574219 L 3.378906 4.605469 C 3.382812 4.765625 3.382812 4.917969 3.355469 5.074219 L 3.304688 5.074219 Z M 3.304688 4.574219 "/>
<path style=" stroke:none;fill-rule:nonzero;fill:rgb(77.254903%,89.411765%,94.117647%);fill-opacity:1;" d="M 8.476562 7.675781 L 8.402344 7.738281 L 8.402344 7.832031 L 8.453125 7.863281 L 8.425781 7.988281 C 8.328125 7.839844 8.328125 7.839844 8.328125 7.769531 L 8.277344 7.769531 L 8.277344 7.707031 C 8.351562 7.648438 8.390625 7.636719 8.476562 7.675781 Z M 8.476562 7.675781 "/>
<path style=" stroke:none;fill-rule:nonzero;fill:rgb(14.901961%,29.411766%,41.960785%);fill-opacity:1;" d="M 7.859375 6.304688 L 7.90625 6.328125 C 7.886719 6.402344 7.867188 6.445312 7.8125 6.480469 C 7.769531 6.503906 7.726562 6.527344 7.679688 6.546875 L 7.632812 6.484375 C 7.65625 6.453125 7.683594 6.421875 7.710938 6.386719 L 7.757812 6.335938 C 7.804688 6.296875 7.804688 6.296875 7.859375 6.304688 Z M 7.859375 6.304688 "/>
<path style=" stroke:none;fill-rule:nonzero;fill:rgb(76.862746%,89.019608%,94.117647%);fill-opacity:1;" d="M 7.308594 3.570312 C 7.46875 3.578125 7.5625 3.695312 7.679688 3.820312 L 7.605469 3.851562 L 7.53125 3.789062 L 7.53125 3.726562 L 7.40625 3.695312 L 7.382812 3.601562 Z M 7.308594 3.570312 "/>
<path style=" stroke:none;fill-rule:nonzero;fill:rgb(9.019608%,23.137255%,34.117648%);fill-opacity:1;" d="M 5.320312 10.746094 L 5.34375 10.746094 L 5.34375 11.589844 L 5.269531 11.558594 L 5.269531 11.496094 L 5.320312 11.496094 Z M 5.320312 10.746094 "/>
<path style=" stroke:none;fill-rule:nonzero;fill:rgb(79.215688%,89.411765%,93.725491%);fill-opacity:1;" d="M 9.941406 10.902344 C 9.980469 10.945312 9.980469 10.945312 10.015625 10.996094 L 10.015625 11.058594 L 10.089844 11.058594 L 10.117188 11.246094 L 10.066406 11.277344 C 10.042969 11.226562 10.015625 11.175781 9.992188 11.125 L 9.949219 11.039062 L 9.917969 10.964844 Z M 9.941406 10.902344 "/>
<path style=" stroke:none;fill-rule:nonzero;fill:rgb(76.078433%,89.803922%,93.725491%);fill-opacity:1;" d="M 8.648438 1.753906 C 8.765625 1.773438 8.875 1.828125 8.972656 1.910156 L 9 2.003906 L 9.046875 2.035156 L 9.023438 2.097656 C 8.96875 2.054688 8.917969 2.007812 8.863281 1.960938 L 8.820312 1.921875 C 8.757812 1.871094 8.703125 1.820312 8.648438 1.753906 Z M 8.648438 1.753906 "/>
<path style=" stroke:none;fill-rule:nonzero;fill:rgb(71.764708%,87.843138%,91.764706%);fill-opacity:1;" d="M 9.742188 3.257812 C 9.808594 3.351562 9.835938 3.4375 9.863281 3.558594 L 9.882812 3.648438 C 9.894531 3.726562 9.894531 3.726562 9.84375 3.820312 C 9.839844 3.792969 9.832031 3.769531 9.828125 3.742188 C 9.820312 3.707031 9.8125 3.671875 9.808594 3.636719 L 9.789062 3.53125 C 9.773438 3.449219 9.773438 3.449219 9.742188 3.414062 C 9.742188 3.363281 9.742188 3.308594 9.742188 3.257812 Z M 9.742188 3.257812 "/>
<path style=" stroke:none;fill-rule:nonzero;fill:rgb(18.039216%,34.901962%,46.27451%);fill-opacity:1;" d="M 9.621094 10.460938 C 9.707031 10.5 9.722656 10.535156 9.773438 10.632812 L 9.816406 10.707031 C 9.84375 10.777344 9.84375 10.777344 9.816406 10.871094 C 9.71875 10.691406 9.71875 10.691406 9.71875 10.621094 L 9.667969 10.621094 L 9.667969 10.554688 L 9.621094 10.554688 Z M 9.621094 10.460938 "/>
<path style=" stroke:none;fill-rule:nonzero;fill:rgb(24.313726%,49.019608%,58.039218%);fill-opacity:1;" d="M 5.519531 7.363281 C 5.519531 7.460938 5.511719 7.5 5.46875 7.582031 C 5.414062 7.605469 5.414062 7.605469 5.367188 7.613281 L 5.367188 7.675781 L 5.269531 7.707031 C 5.292969 7.667969 5.316406 7.632812 5.339844 7.597656 L 5.382812 7.535156 L 5.417969 7.488281 L 5.46875 7.488281 Z M 5.519531 7.363281 "/>
<path style=" stroke:none;fill-rule:nonzero;fill:rgb(23.529412%,48.627451%,57.254905%);fill-opacity:1;" d="M 9.171875 7.046875 L 8.949219 7.265625 L 8.921875 7.140625 C 9.089844 7.011719 9.089844 7.011719 9.171875 7.046875 Z M 9.171875 7.046875 "/>
<path style=" stroke:none;fill-rule:nonzero;fill:rgb(10.196079%,21.176471%,32.941177%);fill-opacity:1;" d="M 6.164062 8.082031 L 6.222656 8.128906 C 6.285156 8.183594 6.285156 8.183594 6.363281 8.175781 L 6.3125 8.207031 L 6.3125 8.363281 C 6.175781 8.203125 6.175781 8.203125 6.164062 8.082031 Z M 6.164062 8.082031 "/>
<path style=" stroke:none;fill-rule:nonzero;fill:rgb(4.313726%,20.392157%,34.117648%);fill-opacity:1;" d="M 5.171875 7.800781 L 5.21875 7.832031 C 5.117188 7.953125 5.035156 8.039062 4.898438 8.082031 C 4.980469 7.96875 5.066406 7.882812 5.171875 7.800781 Z M 5.171875 7.800781 "/>
<path style=" stroke:none;fill-rule:nonzero;fill:rgb(78.039217%,91.764706%,95.294118%);fill-opacity:1;" d="M 6.386719 6.765625 L 6.386719 6.859375 L 6.328125 6.886719 L 6.265625 6.921875 L 6.238281 7.015625 L 6.113281 7.015625 C 6.203125 6.925781 6.292969 6.84375 6.386719 6.765625 Z M 6.386719 6.765625 "/>
<path style=" stroke:none;fill-rule:nonzero;fill:rgb(74.901962%,89.019608%,93.725491%);fill-opacity:1;" d="M 9.496094 6.484375 L 9.546875 6.578125 C 9.523438 6.621094 9.5 6.660156 9.476562 6.703125 L 9.4375 6.769531 C 9.390625 6.835938 9.363281 6.847656 9.296875 6.859375 C 9.304688 6.84375 9.316406 6.828125 9.328125 6.808594 L 9.40625 6.675781 C 9.441406 6.613281 9.46875 6.554688 9.496094 6.484375 Z M 9.496094 6.484375 "/>
<path style=" stroke:none;fill-rule:nonzero;fill:rgb(43.137255%,71.372551%,72.941178%);fill-opacity:1;" d="M 7.480469 5.765625 C 7.445312 5.910156 7.359375 5.949219 7.257812 6.015625 L 7.257812 5.921875 L 7.308594 5.921875 L 7.308594 5.859375 C 7.417969 5.765625 7.417969 5.765625 7.480469 5.765625 Z M 7.480469 5.765625 "/>
<path style=" stroke:none;fill-rule:nonzero;fill:rgb(76.862746%,91.764706%,96.470588%);fill-opacity:1;" d="M 8.402344 5.105469 L 8.402344 5.261719 L 8.328125 5.199219 C 8.261719 5.210938 8.261719 5.210938 8.203125 5.230469 L 8.203125 5.167969 C 8.28125 5.101562 8.308594 5.101562 8.402344 5.105469 Z M 8.402344 5.105469 "/>
<path style=" stroke:none;fill-rule:nonzero;fill:rgb(27.843139%,56.862748%,61.960787%);fill-opacity:1;" d="M 9.816406 5.292969 L 9.867188 5.324219 C 9.847656 5.566406 9.847656 5.566406 9.792969 5.636719 C 9.753906 5.535156 9.777344 5.4375 9.792969 5.324219 Z M 9.816406 5.292969 "/>
<path style=" stroke:none;fill-rule:nonzero;fill:rgb(25.882354%,56.862748%,61.56863%);fill-opacity:1;" d="M 8.300781 1.628906 L 8.398438 1.640625 L 8.449219 1.648438 C 8.5 1.660156 8.5 1.660156 8.574219 1.722656 L 8.574219 1.785156 L 8.476562 1.785156 L 8.453125 1.722656 C 8.402344 1.699219 8.351562 1.679688 8.300781 1.660156 Z M 8.300781 1.628906 "/>
<path style=" stroke:none;fill-rule:nonzero;fill:rgb(74.117649%,89.411765%,93.725491%);fill-opacity:1;" d="M 8.277344 1.535156 C 8.402344 1.550781 8.492188 1.582031 8.601562 1.660156 L 8.601562 1.722656 C 8.484375 1.683594 8.382812 1.636719 8.277344 1.566406 Z M 8.277344 1.535156 "/>
<path style=" stroke:none;fill-rule:nonzero;fill:rgb(74.509805%,82.745099%,88.235295%);fill-opacity:1;" d="M 6.363281 8.582031 L 6.414062 8.582031 C 6.511719 8.792969 6.511719 8.792969 6.511719 8.863281 L 6.4375 8.863281 L 6.4375 8.738281 L 6.363281 8.707031 Z M 6.363281 8.582031 "/>
<path style=" stroke:none;fill-rule:nonzero;fill:rgb(77.64706%,87.450981%,92.156863%);fill-opacity:1;" d="M 7.605469 11.152344 C 7.683594 11.238281 7.722656 11.308594 7.753906 11.433594 L 7.632812 11.371094 Z M 7.605469 11.152344 "/>
<path style=" stroke:none;fill-rule:nonzero;fill:rgb(15.294118%,29.803923%,41.176471%);fill-opacity:1;" d="M 7.058594 9.960938 C 7.136719 9.992188 7.15625 10.015625 7.207031 10.085938 L 7.257812 10.148438 L 7.234375 10.210938 L 7.160156 10.210938 Z M 7.058594 9.960938 "/>
<path style=" stroke:none;fill-rule:nonzero;fill:rgb(29.411766%,52.941179%,60.392159%);fill-opacity:1;" d="M 5.691406 7.363281 C 5.550781 7.519531 5.550781 7.519531 5.492188 7.519531 C 5.511719 7.441406 5.511719 7.441406 5.542969 7.363281 C 5.617188 7.332031 5.617188 7.332031 5.691406 7.363281 Z M 5.691406 7.363281 "/>
<path style=" stroke:none;fill-rule:nonzero;fill:rgb(18.82353%,28.627452%,38.82353%);fill-opacity:1;" d="M 7.007812 7.046875 L 7.035156 7.140625 L 6.886719 7.265625 L 6.835938 7.203125 Z M 7.007812 7.046875 "/>
<path style=" stroke:none;fill-rule:nonzero;fill:rgb(75.686276%,89.411765%,92.156863%);fill-opacity:1;" d="M 6.859375 6.328125 L 6.933594 6.359375 L 6.8125 6.515625 L 6.734375 6.453125 C 6.792969 6.386719 6.792969 6.386719 6.859375 6.328125 Z M 6.859375 6.328125 "/>
<path style=" stroke:none;fill-rule:nonzero;fill:rgb(74.117649%,89.019608%,92.941177%);fill-opacity:1;" d="M 7.679688 3.851562 C 7.820312 4.015625 7.820312 4.015625 7.828125 4.136719 L 7.78125 4.167969 L 7.730469 3.976562 L 7.679688 3.976562 Z M 7.679688 3.851562 "/>
<path style=" stroke:none;fill-rule:nonzero;fill:rgb(25.098041%,55.29412%,60.784316%);fill-opacity:1;" d="M 7.058594 1.316406 C 7.128906 1.3125 7.128906 1.3125 7.207031 1.316406 L 7.257812 1.378906 C 7.234375 1.410156 7.234375 1.410156 7.144531 1.410156 L 7.058594 1.410156 Z M 7.058594 1.316406 "/>
<path style=" stroke:none;fill-rule:nonzero;fill:rgb(26.666668%,39.215687%,47.450981%);fill-opacity:1;" d="M 10.140625 11.464844 C 10.214844 11.496094 10.214844 11.496094 10.246094 11.5625 L 10.265625 11.621094 L 10.066406 11.621094 L 10.140625 11.589844 Z M 10.140625 11.464844 "/>
<path style=" stroke:none;fill-rule:nonzero;fill:rgb(23.921569%,40.392157%,51.372552%);fill-opacity:1;" d="M 9.296875 9.742188 C 9.355469 9.832031 9.40625 9.917969 9.445312 10.023438 C 9.398438 10.015625 9.398438 10.015625 9.347656 9.992188 C 9.296875 9.902344 9.296875 9.859375 9.296875 9.742188 Z M 9.296875 9.742188 "/>
<path style=" stroke:none;fill-rule:nonzero;fill:rgb(76.47059%,89.411765%,93.725491%);fill-opacity:1;" d="M 6.089844 7.015625 C 6.089844 7.109375 6.089844 7.109375 6.058594 7.164062 C 6 7.21875 5.960938 7.210938 5.890625 7.203125 C 5.957031 7.136719 6.019531 7.074219 6.089844 7.015625 Z M 6.089844 7.015625 "/>
<path style=" stroke:none;fill-rule:nonzero;fill:rgb(78.039217%,90.196079%,94.901961%);fill-opacity:1;" d="M 9.621094 6.234375 L 9.667969 6.296875 C 9.667969 6.359375 9.667969 6.359375 9.644531 6.421875 C 9.582031 6.460938 9.582031 6.460938 9.519531 6.484375 Z M 9.621094 6.234375 "/>
<path style=" stroke:none;fill-rule:nonzero;fill:rgb(25.098041%,53.333336%,61.56863%);fill-opacity:1;" d="M 9.195312 6.765625 L 9.273438 6.890625 L 9.171875 7.015625 C 9.15625 6.945312 9.15625 6.945312 9.148438 6.859375 Z M 9.195312 6.765625 "/>
<path style=" stroke:none;fill-rule:nonzero;fill:rgb(73.333335%,89.019608%,92.156863%);fill-opacity:1;" d="M 6.6875 6.484375 L 6.734375 6.515625 C 6.707031 6.578125 6.707031 6.578125 6.660156 6.640625 C 6.582031 6.664062 6.582031 6.664062 6.511719 6.671875 C 6.566406 6.601562 6.625 6.542969 6.6875 6.484375 Z M 6.6875 6.484375 "/>
<path style=" stroke:none;fill-rule:nonzero;fill:rgb(52.549022%,79.607844%,82.745099%);fill-opacity:1;" d="M 8.128906 5.105469 L 8.277344 5.105469 L 8.253906 5.167969 L 8.203125 5.167969 L 8.203125 5.230469 L 8.128906 5.261719 Z M 8.128906 5.105469 "/>
<path style=" stroke:none;fill-rule:nonzero;fill:rgb(35.686275%,61.56863%,67.450982%);fill-opacity:1;" d="M 8.179688 1.503906 L 8.402344 1.597656 C 8.304688 1.628906 8.269531 1.625 8.179688 1.597656 Z M 8.179688 1.503906 "/>
</g>
</svg>
